<?xml version="1.0" encoding="UTF-8"?><svg xmlns="http://www.w3.org/2000/svg" xmlns:xlink="http://www.w3.org/1999/xlink" viewBox="0 0 48 48" version="1.1"><g id="surface1"><path d="M24 24.332S29 16 35.664 16C40.25 16 44 19.75 44 24.332c0 4.582-3.75 8.332-8.336 8.332C29 32.664 24 24.332 24 24.332z" fill="none" stroke-width="4" stroke-linecap="butt" stroke-linejoin="miter" stroke="#009688" stroke-opacity="1" stroke-miterlimit="10"/><path d="M24 24.332s-5 8.332-11.668 8.332C7.75 32.664 4 28.914 4 24.332 4 19.75 7.75 16 12.332 16 19.168 16 24 24.332 24 24.332z" fill="none" stroke-width="4" stroke-linecap="butt" stroke-linejoin="miter" stroke="#009688" stroke-opacity="1" stroke-miterlimit="10"/><path d="M10 23h6.004v2H10z" fill="#009688"/><path d="M32 23h6.004v2H32z" fill="#009688"/><path d="M34 21h2v6h-2z" fill="#009688"/></g><metadata><rdf:RDF xmlns:rdf="http://www.w3.org/1999/02/22-rdf-syntax-ns#" xmlns:rdfs="http://www.w3.org/2000/01/rdf-schema#" xmlns:dc="http://purl.org/dc/elements/1.1/"><rdf:Description about="https://iconscout.com/legal#licenses" dc:title="arduino" dc:description="arduino" dc:publisher="Iconscout" dc:date="2017-12-15" dc:format="image/svg+xml" dc:language="en"><dc:creator><rdf:Bag><rdf:li>Icons8</rdf:li></rdf:Bag></dc:creator></rdf:Description></rdf:RDF></metadata></svg>